# xmcd CD database file
#
# Track frame offsets:
#	150
#	16315
#	30681
#	45811
#	60078
#	76411
#	92428
#	105664
#	119003
#	131285
#	145980
#	159957
#	174289
#	188541
#	200585
#	214660
#
# Disc length: 3048 seconds
#
# Revision: 0
# Processed by: cddbd v1.5.2PL0 Copyright (c) Steve Scherf et al.
# Submitted via: CDex 1.51
#
DISCID=bf0be610
DTITLE=Cavalo de Pau - Cartas Marcadas
DYEAR=1900
DGENRE=Forró
TTITLE0=Cartas marcadas
TTITLE1=Fugitiva do amor
TTITLE2=Uma saudade
TTITLE3=Ainda amo você
TTITLE4=Carícias
TTITLE5=O que fez o amor
TTITLE6=Sem medo de errar
TTITLE7=Pena de nós dois
TTITLE8=Sentindo a sua falta
TTITLE9=Te amo, mas não sou boba
TTITLE10=Tudo pra dar certo
TTITLE11=Chuva
TTITLE12=Bombom chupado
TTITLE13=Quero seu perdão
TTITLE14=Meu primeiro e único amor
TTITLE15=O preço do amor
EXTD=
EXTT0=
EXTT1=
EXTT2=
EXTT3=
EXTT4=
EXTT5=
EXTT6=
EXTT7=
EXTT8=
EXTT9=
EXTT10=
EXTT11=
EXTT12=
EXTT13=
EXTT14=
EXTT15=
PLAYORDER=
